PathFileType	4	(X/Y/Z)	/home/abdul/Desktop/myosuite/custom_workspace/IK/output/S4_12_3.trc
DataRate	CameraRate	NumFrames	NumMarkers	Units	OrigDataRate	OrigDataStartFrame	OrigNumFrames
200.0	200.0	67	3	mm	200.0	116	923
Frame#	Time	V_Shoulder			V_Elbow			V_Wrist		
		X1	Y1	Z1	X2	Y2	Z2	X3	Y3	Z3

116	0.575	-92.86189802907138	576.8255413134463	268.9104078957771	-171.95904644438482	452.73364426784343	3.663576113196268	-181.62781198768283	241.98553034903316	76.40780347969192
117	0.58	-92.65548339246921	576.6291931028245	268.9650921958391	-171.58272454264392	452.73430707918016	3.599689876530421	-180.1137969039678	242.16697924065215	77.0688674142279
118	0.585	-92.44596764438934	576.4309414930091	269.0207854550822	-171.1990456955022	452.7055487803825	3.5529873055574477	-178.58060481462377	242.31024627383016	77.69099189801803
119	0.59	-92.23338734103281	576.2306940888564	269.0774141701798	-170.80790063248713	452.6474387115238	3.5231473806362676	-177.0293432576203	242.41512302317727	78.27314194763412
120	0.595	-92.01778082256618	576.0283628186718	269.13490602977885	-170.4091920920536	452.5601071750124	3.5098223485384663	-175.46114280609237	242.4814858870131	78.81437402355049
121	0.6	-91.79918815739502	575.8238644493	269.19319015289415	-170.0028355999694	452.4437446165824	3.5126393113566854	-173.8771548722421	242.5092959946288	79.31383848128607
122	0.605	-91.57765108564958	575.6171210776797	269.25219731693244	-169.58876021085914	452.29860062891044	3.5312018511489067	-172.27854948595052	242.49859883045457	79.77078167974318
123	0.61	-91.35321296212614	575.4080605965725	269.31186017446373	-169.16690920931245	452.1249827840926	3.5650916826546966	-170.66651305458814	242.44952357860285	80.18454774011204
124	0.615	-91.12591869892407	575.196617132315	269.37211345791707	-168.73724076714342	451.9232553018395	3.6138703265176466	-169.04224611048602	242.36228219253368	80.55457995049309
125	0.62	-90.8958147080175	574.9827314526036	269.4328941714388	-168.29972855358656	451.69383756082834	3.6770807955805687	-167.40696105248077	242.23716819584325	80.88042181319082
126	0.625	-90.66294884399554	574.7663513424824	269.49414176921636	-167.85436229543194	451.43720246118437	3.7542492869850634	-165.76187988787024	242.0745552213926	81.16171773344067
127	0.63	-90.42737034720135	574.5474319468839	269.55579831963706	-167.40114828433258	451.15387464655345	3.844886873003332	-164.1082319810192	241.87489529717482	81.39821335013491
128	0.635	-90.18912978749437	574.3259360782519	269.6178086547255	-166.94010982876577	450.8444285946646	3.9484911837562087	-162.44725181473024	241.63871688844884	81.58975551090337
129	0.64	-89.94827900885365	574.1018344879692	269.68012050437125	-166.47128764838993	450.5094865856684	4.064548075225606	-160.78017677035044	241.36662270674486	81.73629189566849
130	0.645	-89.70487107503283	573.8751061005017	269.7426846149381	-165.99474020881271	450.1497165578769	4.19253327625036	-159.10824493241574	241.05928729736144	81.8378702945231
131	0.65	-89.45896021646949	573.6457382093778	269.8054548519181	-165.5105439950714	449.7658298608134	4.331914008500025	-157.4326929234448	240.71745441792226	81.89463754746083
132	0.655	-89.21060177864257	573.4137266343226	269.86838828637434	-165.01879372242098	449.3585789157145	4.482150573749794	-155.7547537742864	240.3419342214322	81.90683815511454
133	0.66	-88.95985217206136	573.1790758390703	269.9314452649946	-164.51960248332833	448.9287547938039	4.642697903129646	-154.07565483519375	239.9336002580662	81.87481257121806
134	0.665	-88.7067688240602	572.941799009591	269.9945894636533	-164.0131018298809	448.4771847227878	4.813007063389742	-152.39661573255222	239.4933863106324	81.79899518898965
135	0.67	-88.45141013256098	572.7019180926701	270.0577879244641	-163.49944179113163	448.004729532094	4.992526715610532	-150.71884637592393	239.02228307926845	81.67991203503574
136	0.675	-88.1938354219542	572.4594637949884	270.1210110763764	-162.9787908252194	447.51228104739977	5.180704522187313	-149.0435450197926	238.52133473145489	81.51817818568017
137	0.68	-87.93410490123726	572.2144755430545	270.18423273945365	-162.45133570641974	447.0007594449636	5.376988498333253	-147.3718963840989	237.99163533385524	81.31449492183043
138	0.685	-87.67227962453482	571.9670014045407	270.2474301130414	-161.9172813475982	446.4711105761995	5.58082830476968	-145.7050698373518	237.43432518282185	81.06964663959167
139	0.69	-87.40842145411402	571.7170979717724	270.310583748113	-161.37685055884845	445.9243032728018	5.7916764787052415	-144.04421764578316	236.8505870506292	80.7844975348246
140	0.695	-87.14259302599193	571.4648302083087	270.3736775041496	-160.8302837434045	445.3613266425539	6.008989600643998	-142.3904732916889	236.24164236462153	80.45998808070905
141	0.7	-86.87485771821912	571.2102712597408	270.43669849098274	-160.27783853221254	444.78318736573215	6.2322293950038254	-140.74494986376533	235.608747336481	80.09713131811787
142	0.705	-86.60527962190775	570.9535022300055	270.4996369960964	-159.71978935883638	444.1909070017514	6.460863762968119	-139.10873852191168	234.95318905873918	79.69700897921908
143	0.71	-86.33392351505849	570.6946119246828	270.56248639794876	-159.15642697664452	443.5855193153901	6.6943677464327624	-137.48290703862475	234.27628158547384	79.26076746520974
144	0.715	-86.06085483922324	570.4336965629087	270.62524306593394	-158.58805792048702	442.9680676315861	6.932224422344029	-135.8684984187678	233.57936201385115	78.78961369943534
145	0.72	-85.78613967902709	570.1708594596715	270.6879062476643	-158.0150039153153	442.3396022274096	7.173925727148538	-134.26652959914787	232.86378658279864	78.2848108773672
146	0.725	-85.50984474455477	569.9062106804093	270.750477944304	-157.43760123442297	441.70117776940225	7.41897321149071	-132.6779902289905	232.13092680462682	77.74767413499592
147	0.73	-85.23203735659284	569.6398666699432	270.8129627747351	-156.85620001019225	441.0538508040197	7.666878725693663	-131.10384153205848	231.3821656448672	77.17956615715111
148	0.735	-84.95278543470046	569.3719498578972	270.8753678293826	-156.27116350041695	440.3986773084408	7.917165036943387	-129.54501525082173	230.6188937649623	76.58189274708153
149	0.74	-84.67215748806721	569.1025882428538	270.93770251456203	-155.68286731343468	439.7367103085006	8.169366379460385	-128.00241267275277	229.84250584173654	75.95609837832491
150	0.745	-84.39022260909896	568.8319149575799	270.99997838825135	-155.09169859544187	439.068997569982	8.423028939285755	-126.47690373849744	229.0543969768072	75.30366174947082
151	0.75	-84.10705046965683	568.5600678177328	271.0622089882152	-154.49805518348123	438.39657936896197	8.6777112756269	-124.96932623135265	228.25595920826152	74.6260913618741
152	0.755	-83.8227113198587	568.2871888565072	271.12440965343643	-153.90234472768233	437.7204863463516	8.932984681000136	-123.48048504717974	227.44857813604426	73.92492113971983
153	0.76	-83.53727598933637	568.0134238477355	271.18659733982855	-153.30498378640397	437.0417374512049	9.188433482670987	-122.01115154358632	226.63362967157335	73.20170611107824
154	0.765	-83.25081589082588	567.7389218199745	271.2487904312168	-152.7063968979691	436.3613379768025	9.443655288126557	-120.56206296693153	225.81247692114107	72.45801816772652
155	0.77	-82.96340302595394	567.4638345641306	271.3110085465819	-152.1070156327024	435.68027769294486	9.698261177516748	-119.13392195544438	224.9864672116708	71.69544192056394
156	0.775	-82.6751099930678	567.1883161371726	271.3732723445686	-151.50727762897355	434.99952907731927	9.951875846171019	-117.72739611649817	224.15692926639383	70.91557066641363
157	0.78	-82.38600999694218	566.9125223644661	271.4356033262541	-150.90762561692335	434.3200456482409	10.204137700434451	-116.3431176758548	223.32517053699627	70.12000248089959
158	0.785	-82.09617686018247	566.6366103432359	271.49802363716776	-150.30850643349723	433.6427604005181	10.454698910170809	-114.98168319648296	222.49247469776896	69.31033645091912
159	0.79	-81.80568503613128	566.3607379496149	271.5605558695385	-149.71037003234215	432.9685843456475	10.703225421351133	-113.64365336436674	221.6600993062849	68.48816905900956
160	0.795	-81.51460962307165	566.0850633516881	271.62322286573203	-149.1136684920305	432.29840515702637	10.949396932184662	-112.32955283855455	220.82927363413197	67.65509073064412
161	0.8	-81.22302637950945	565.8097445308625	271.6860475238159	-148.51885502596812	431.6330859203632	11.19290683625562	-111.03987016255627	220.00119667025223	66.81268255419391
162	0.805	-80.93101174030606	565.5349388138189	271.7490526061644	-147.92638299721807	430.97346398899134	11.433462136105698	-109.77505773407876	219.17703529849436	65.96251318197298
163	0.81	-80.63864283342276	565.2608024172056	271.81226055198607	-147.33670494133463	430.3203499433346	11.67078333064951	-108.53553182999732	218.3579226500678	65.10613591944964
164	0.815	-80.34599749702868	564.9874900071242	271.87569329461945	-146.75027160014912	429.6745266533496	11.904604279731048	-107.3216726833945	217.54495663071353	64.2450860083706
165	0.82	-80.05315429671636	564.7151542753528	271.93937208440667	-146.1675309692897	429.0367484423748	12.134672049025049	-106.13382460945815	216.73919862157157	63.38087810821416
166	0.825	-79.760192542562	564.4439455341187	272.0033173179103	-145.58892736204598	428.40774035045195	12.360746738360902	-104.97229617701828	215.94167235194016	62.51500397907277
167	0.83	-79.46719230576106	564.1740113311025	272.06754837419606	-145.01490049201374	427.7881974948548	12.582601296400796	-103.83736042251631	215.15336294138393	61.648930367774554
168	0.835	-79.17423443456569	563.9054960862217	272.13208345885505	-144.44588457677418	427.17878452526446	12.80002132444086	-102.72925510324184	214.37521610796563	60.78409709779305
169	0.84	-78.88140056924642	563.6385407515845	272.19693945638824	-143.88230746467912	426.5801351707661	13.012804871927253	-101.64818298673981	213.60813753874612	59.921915362274596
170	0.845	-78.58877315579842	563.3732824958615	272.26213179152546	-143.324589786631	425.99285187561406	13.220762226090926	-100.59431217338357	212.85299241812316	59.06376621833884
171	0.85	-78.29643545811147	563.1098544141618	272.32767429999564	-142.77314413456304	425.41750552051883	13.423715697908385	-99.56777644922718	212.1106051090627	58.21099927968619
172	0.855	-78.00447156832348	562.8483852643408	272.3935791092094	-142.22837426814777	424.85463522604266	13.621499406393824	-98.5686756663911	211.38175898181308	57.36493160348293
173	0.86	-77.7129664150781	562.5889992305068	272.4598565292593	-141.69067435108758	424.3047482345678	13.813959063023113	-97.59707614839712	210.66719638428702	56.526846766494124
174	0.865	-77.42200576941133	562.3318157143268	272.52651495458605	-141.16042821817237	423.7683198671942	14.000951757884863	-96.6530111180513	209.96761874794456	55.697994124501506
175	0.87	-77.13167624799509	562.0769491545699	272.59356077659953	-140.63800867413073	423.2457935518595	14.18234574895064	-95.73648114567172	209.2836868227099	54.87958824818084
176	0.875	-76.84206531347252	561.8245088751623	272.66099830748703	-140.12377682514844	422.73758091892876	14.358020255657097	-94.84745461567456	208.61602103420907	54.072808527824556
177	0.88	-76.55326127162631	561.5745989618687	272.7288297153845	-139.61808144378637	422.24406196048216	14.527865257799562	-93.98586820975878	207.9652019564142	53.278798938583044
178	0.885	-76.26535326513066	561.3273181675509	272.79705497102583	-139.1212583678982	421.76558524953873	14.691781300550787	-93.15162740516803	207.33177089262998	52.49866795726223
179	0.89	-75.97843126364684	561.0827598458056	272.8656718059344	-138.63362993402788	421.30246821547837	14.849679306241526	-92.34460698675514	206.7162305576473	51.73348862115944
180	0.895	-75.69258605003452	560.8410119126274	272.93467568216016	-138.15550444565582	420.8549974719719	15.001480393372404	-91.56465157182467	206.11904585382382	50.98429871894224
181	0.9	-75.40790920246285	560.6021568355974	273.0040597735169	-137.68717567656734	420.42342919378984	15.147115703169842	-90.81157614698279	205.54064473382107	50.25210110317772
182	0.905	-75.12449307222074	560.3662716499634	273.07381495821795	-137.2289224095269	420.00798953894116	15.286526233853394	-90.08516661647538	204.98141914273452	49.537864113801504
